
<svg width="34" height="18" viewBox="0 0 34 18" fill="none" xmlns="http://www.w3.org/2000/svg">
<path d="M32.8749 9.57921L20.3715 17.7601C20.1367 17.9137 19.8183 18 19.4862 18C19.1542 18 18.8358 17.9137 18.601 17.7601C18.3662 17.6065 18.2343 17.3981 18.2343 17.1809C18.2343 16.9636 18.3662 16.7553 18.601 16.6017L28.9713 9.81809L1.98152 9.81809C1.64991 9.81809 1.33188 9.7319 1.0974 9.57848C0.862911 9.42505 0.731182 9.21697 0.731182 9C0.731182 8.78303 0.862911 8.57495 1.0974 8.42152C1.33188 8.2681 1.64991 8.18191 1.98152 8.18191L28.9713 8.18191L18.601 1.39833C18.3662 1.24471 18.2343 1.03637 18.2343 0.819121C18.2343 0.601877 18.3662 0.39353 18.601 0.239915C18.8358 0.0862996 19.1542 -5.85566e-07 19.4862 -5.73345e-07C19.8183 -5.61125e-07 20.1367 0.0862997 20.3715 0.239915L32.8749 8.42079C32.9913 8.49679 33.0837 8.58707 33.1467 8.68646C33.2097 8.78584 33.2422 8.89239 33.2422 9C33.2422 9.10761 33.2097 9.21416 33.1467 9.31355C33.0837 9.41294 32.9913 9.50321 32.8749 9.57921Z" fill="white"/>
</svg>
