
<svg width="1424" height="365" viewBox="0 0 1424 365" fill="none" xmlns="http://www.w3.org/2000/svg">
<g clip-path="url(#clip0_535_32)">
<ellipse cx="998.5" cy="194.5" rx="6.5" ry="11.5" fill="#D9D9D9"/>
<ellipse cx="1040.5" cy="205.5" rx="6.5" ry="11.5" fill="#D9D9D9"/>
<path d="M0.0444155 237.424L34.0904 181.114L215.146 209.37L216.676 206.84L107.538 59.6377L141.584 3.32826L357.542 133.902L330.765 178.19L190.202 93.2025L189.118 94.9951L294.835 235.233L276.601 265.391L102.774 236.61L101.691 238.403L242.781 323.709L216.003 367.997L0.0444155 237.424Z" fill="white"/>
<path d="M504.552 103.001L556.193 89.581L597.414 248.201C602.042 266.011 601.838 282.7 596.802 298.268C591.846 313.816 582.745 327.3 569.501 338.72C556.237 350.061 539.507 358.355 519.312 363.604C499.037 368.873 480.346 369.783 463.238 366.335C446.11 362.808 431.596 355.461 419.697 344.293C407.797 333.126 399.534 318.637 394.905 300.827L353.684 142.208L405.325 128.788L445.399 282.995C447.817 292.297 451.993 300.039 457.928 306.221C463.943 312.382 471.225 316.558 479.773 318.75C488.321 320.943 497.565 320.747 507.503 318.164C517.521 315.561 525.69 311.231 532.01 305.175C538.41 299.099 542.697 291.916 544.871 283.627C547.125 275.317 547.044 266.511 544.626 257.208L504.552 103.001Z" fill="white"/>
<path d="M751.243 368.136L582.253 180.707L621.88 144.978L761.413 299.735L841.766 227.287L871.223 259.959L751.243 368.136Z" fill="white"/>
<path d="M929.265 128.02L958.762 95.3832L1112.53 234.359L1083.03 266.995L1025.71 215.189L885.992 369.778L846.865 334.414L986.584 179.826L929.265 128.02Z" fill="white"/>
<path d="M1418.54 132.073L1307.84 358.86L1259.89 335.455L1370.6 108.668L1418.54 132.073Z" fill="white"/>
<circle cx="1143.69" cy="299.175" r="60.6897" fill="#EE5514"/>
<circle cx="1216.87" cy="321.487" r="44.6248" fill="#EE5514"/>
<line y1="-2.5" x2="51.3245" y2="-2.5" transform="matrix(-0.481549 0.876419 -0.732793 -0.680451 1142.52 201)" stroke="#EE5514" stroke-width="5"/>
<line y1="-2.5" x2="51.3245" y2="-2.5" transform="matrix(-0.481549 0.876419 -0.732793 -0.680451 1184.47 210.817)" stroke="#EE5514" stroke-width="5"/>
</g>
<defs>
<clipPath id="clip0_535_32">
<rect width="1424" height="365" fill="white"/>
</clipPath>
</defs>
</svg>
